<svg width="48" height="48" viewBox="0 0 48 48" fill="none" xmlns="http://www.w3.org/2000/svg">
<g clip-path="url(#clip0_267_7104)">
<path d="M46.7999 24C46.7999 11.4079 36.592 1.20001 24 1.20001C11.4079 1.20001 1.19995 11.4079 1.19995 24C1.19995 36.5921 11.4079 46.8 24 46.8C36.592 46.8 46.7999 36.5921 46.7999 24Z" fill="#2D374B" stroke="#96BEDC" stroke-width="2.4"/>
<mask id="mask0_267_7104" style="mask-type:alpha" maskUnits="userSpaceOnUse" x="0" y="0" width="48" height="48">
<path d="M48 24C48 10.7452 37.2548 0 24 0C10.7452 0 0 10.7452 0 24C0 37.2548 10.7452 48 24 48C37.2548 48 48 37.2548 48 24Z" fill="#C4C4C4"/>
</mask>
<g mask="url(#mask0_267_7104)">
<path d="M24.1476 31.8927L35.2928 49.4194L42.1598 45.4401L28.6855 24.1927L24.1476 31.8927ZM46.5608 37.8399L46.5557 34.6515L34.0304 15.0967L30.0727 21.8121L42.2287 41.4069L45.9521 39.2493C46.1325 39.1031 46.28 38.9205 46.385 38.7135C46.49 38.5065 46.5502 38.2796 46.5615 38.0477L46.5608 37.8399Z" fill="#28A0F0"/>
<path d="M46.2001 24C46.2001 11.7393 36.2608 1.79999 24 1.79999C11.7393 1.79999 1.80005 11.7393 1.80005 24C1.80005 36.2607 11.7393 46.2 24 46.2C36.2608 46.2 46.2001 36.2607 46.2001 24Z" fill="url(#paint0_linear_267_7104)" fill-opacity="0.3" stroke="#96BEDC" stroke-width="3.6"/>
<path d="M0.622984 48.3783L-4.63987 45.3485L-5.04102 43.92L13.279 15.4618C14.5301 13.4196 17.2557 12.7618 19.786 12.7976L22.7556 12.876L0.622984 48.3783ZM32.8552 12.876L25.0289 12.9044L3.84001 47.9199L10.0291 51.4836L11.7122 48.629L32.8552 12.876Z" fill="white"/>
</g>
</g>
<defs>
<linearGradient id="paint0_linear_267_7104" x1="4.94332e-05" y1="-1.26748e-05" x2="24" y2="48" gradientUnits="userSpaceOnUse">
<stop stop-color="white"/>
<stop offset="1" stop-color="white" stop-opacity="0"/>
</linearGradient>
<clipPath id="clip0_267_7104">
<rect width="48" height="48" fill="white"/>
</clipPath>
</defs>
</svg>
