<svg width="8" height="12" viewBox="0 0 8 12" fill="none" xmlns="http://www.w3.org/2000/svg">
<path opacity="0.5" d="M1.53879 7.56094C1.68496 7.62682 1.81179 7.7347 1.95837 7.80038L3.36371 8.43058C3.52571 8.50338 3.70131 8.54102 3.87892 8.54102C4.05653 8.54102 4.23213 8.50338 4.39413 8.43058L5.79926 7.80038C5.94543 7.7345 6.07267 7.62744 6.21884 7.56115L6.24458 7.55023C6.32578 7.51719 6.41261 7.50013 6.50028 7.5C6.58853 7.50002 6.67587 7.51782 6.75709 7.55234C6.8383 7.58687 6.91173 7.6374 6.97298 7.70094C7.10886 7.83517 7.17659 7.99473 7.17659 8.18126C7.17659 8.36778 7.10865 8.52734 6.9736 8.66157L4.39681 11.2767C4.32986 11.3443 4.25006 11.3978 4.16211 11.4342C4.0707 11.4729 3.97867 11.4941 3.8852 11.4988C3.79379 11.5041 3.70221 11.4917 3.6155 11.4624C3.53225 11.4357 3.45819 11.3861 3.40179 11.3193L0.784035 8.66116C0.720877 8.5984 0.671009 8.52356 0.637405 8.44111C0.603802 8.35866 0.587152 8.27028 0.588449 8.18126C0.588449 7.99473 0.653713 7.83517 0.784035 7.70176C0.849299 7.63506 0.924033 7.58482 1.00803 7.55106C1.08911 7.51806 1.17579 7.50101 1.26332 7.50082C1.35843 7.50075 1.45242 7.52112 1.53879 7.56094Z" fill="#F2F2F2"/>
<path opacity="0.9" d="M6.22635 4.43906C6.08017 4.37318 5.95335 4.2653 5.80676 4.19962L4.40143 3.56942C4.23943 3.49662 4.06383 3.45898 3.88622 3.45898C3.70861 3.45898 3.53301 3.49662 3.371 3.56942L1.96588 4.19962C1.8197 4.2655 1.69247 4.37256 1.54629 4.43885L1.52056 4.44976C1.43935 4.48281 1.35253 4.49987 1.26486 4.5C1.17661 4.49998 1.08927 4.48218 1.00805 4.44766C0.926832 4.41313 0.853406 4.3626 0.792157 4.29906C0.656277 4.16483 0.588542 4.00527 0.588542 3.81874C0.588542 3.63222 0.656483 3.47266 0.79154 3.33843L3.36833 0.723346C3.43528 0.655727 3.51508 0.602178 3.60303 0.565848C3.69444 0.527143 3.78647 0.505937 3.87994 0.501202C3.97135 0.495882 4.06292 0.508255 4.14964 0.537642C4.23289 0.564343 4.30695 0.613928 4.36334 0.680729L6.9811 3.33884C7.04426 3.4016 7.09413 3.47644 7.12773 3.55889C7.16133 3.64134 7.17798 3.72972 7.17669 3.81874C7.17669 4.00527 7.11142 4.16483 6.9811 4.29824C6.91584 4.36494 6.8411 4.41518 6.7571 4.44894C6.67603 4.48194 6.58935 4.49899 6.50181 4.49918C6.40671 4.49925 6.31272 4.47888 6.22635 4.43906Z" fill="#F2F2F2"/>
</svg>
