<svg width="48" height="48" viewBox="0 0 48 48" fill="none" xmlns="http://www.w3.org/2000/svg">
<circle fill="#ffffff" cx="24" cy="24" r="18"/>
<path fill-rule="evenodd" clip-rule="evenodd" d="M47.9841 24C47.9841 37.2373 37.2462 47.9681 24 47.9681C10.754 47.9681 0.0159912 37.2373 0.0159912 24C0.0159912 10.7628 10.754 0.0319214 24 0.0319214C37.2462 0.0319214 47.9841 10.7628 47.9841 24ZM17.2036 33.5381H12.549C11.5709 33.5381 11.0878 33.5381 10.7932 33.3498C10.475 33.1436 10.2806 32.8021 10.257 32.4252C10.2394 32.078 10.4809 31.6539 10.9641 30.806L22.4569 10.5618C22.946 9.7021 23.1934 9.27227 23.5057 9.1133C23.8415 8.94256 24.2422 8.94256 24.578 9.1133C24.8903 9.27227 25.1378 9.7021 25.6268 10.5618L27.9895 14.6834L28.0015 14.7044C28.5297 15.6267 28.7976 16.0943 28.9145 16.5852C29.0441 17.121 29.0441 17.6863 28.9145 18.2221C28.7967 18.7167 28.5315 19.1877 27.9954 20.1239L21.9584 30.7884L21.9428 30.8157C21.4112 31.7455 21.1417 32.2168 20.7683 32.5723C20.3617 32.9611 19.8727 33.2435 19.3365 33.4028C18.8475 33.5381 18.2996 33.5381 17.2036 33.5381ZM28.9581 33.5381H35.6276C36.6116 33.5381 37.1066 33.5381 37.4014 33.3441C37.7195 33.1379 37.9197 32.7903 37.9376 32.4137C37.9545 32.0777 37.7182 31.6701 37.2551 30.8715C37.2391 30.8443 37.2232 30.8166 37.2069 30.7885L33.8661 25.0771L33.828 25.0128C33.3586 24.2195 33.1216 23.8189 32.8173 23.664C32.4816 23.4932 32.0866 23.4932 31.7509 23.664C31.4445 23.823 31.1971 24.241 30.708 25.083L27.3791 30.7944L27.3677 30.8141C26.8803 31.6547 26.6368 32.0748 26.6544 32.4195C26.6779 32.7964 26.8724 33.1436 27.1905 33.3498C27.4792 33.5381 27.9742 33.5381 28.9581 33.5381Z" fill="#E84142"/>
</svg>
