<svg width="21" height="22" viewBox="0 0 21 22" fill="none" xmlns="http://www.w3.org/2000/svg">
<path d="M10.9005 15.023V19.4135C10.8953 19.406 10.098 19.4225 10.1003 19.4135V15.023C10.0704 15.0015 10.0423 14.9777 10.0163 14.9517L8.86575 13.8118C8.76719 13.7148 8.69977 13.5906 8.67212 13.4552C8.64446 13.3197 8.65783 13.1791 8.7105 13.0513C8.76215 12.9238 8.85057 12.8146 8.9645 12.7375C9.07842 12.6604 9.21271 12.619 9.35025 12.6185H11.652C11.7897 12.618 11.9243 12.6591 12.0383 12.7363C12.1523 12.8135 12.2403 12.9232 12.291 13.0513C12.3429 13.1791 12.3559 13.3194 12.3282 13.4546C12.3006 13.5898 12.2336 13.7138 12.1357 13.811L10.9853 14.951C10.9591 14.9773 10.9307 15.0014 10.9005 15.023ZM19.3778 7.2095C19.9837 8.7965 21.8888 14.405 19.7288 17.1073C17.6385 19.7225 14.2162 20.627 12.7537 21.0133C10.5022 21.662 10.4978 21.662 8.24625 21.0133C6.7845 20.627 3.3615 19.7232 1.27125 17.1073C-0.88875 14.4042 1.01625 8.79725 1.62225 7.2095C1.03575 6.7505 0 5.73425 0 4.29125C0 2.4125 1.57575 0.5 3.123 0.5H3.1845C4.20675 0.53525 5.05725 1.61225 5.50725 2.31125C5.93925 2.01213 6.44705 1.84131 6.972 1.8185H14.0287C14.5538 1.841 15.0607 2.012 15.4935 2.31125C15.9412 1.61225 16.794 0.53525 17.8162 0.5H17.877C19.4242 0.5 21.0007 2.4125 21.0007 4.29125C21.0007 5.7335 19.965 6.7505 19.3778 7.2095ZM6.8865 10.1C7.23825 10.1 7.58025 9.98225 7.85925 9.7655C8.1375 9.5495 8.33775 9.24575 8.42775 8.903C8.4573 8.78965 8.45037 8.66987 8.40796 8.56068C8.36555 8.45149 8.28981 8.35844 8.1915 8.29475L6.50925 7.21625C6.41108 7.1533 6.29532 7.12349 6.17896 7.13118C6.0626 7.13888 5.95177 7.18368 5.86275 7.259C5.68294 7.41007 5.53854 7.59882 5.43977 7.8119C5.34101 8.02497 5.29031 8.25715 5.29125 8.492C5.29125 8.918 5.46 9.32675 5.75925 9.62825C6.05775 9.92975 6.4635 10.0992 6.8865 10.1ZM14.0017 14.7178C14.0028 14.0269 13.8352 13.3462 13.5135 12.7347C13.193 12.1251 12.7276 11.6036 12.1582 11.216C11.6808 10.8558 11.0988 10.6615 10.5008 10.6625C9.90261 10.6609 9.32032 10.8547 8.8425 11.2145C8.27315 11.6021 7.80776 12.1236 7.48725 12.7333C7.16553 13.3447 6.99793 14.0254 6.999 14.7162C6.999 16.901 8.50725 17.8363 9.7725 18.2352C10.2461 18.3839 10.7539 18.3839 11.2275 18.2352C12.4928 17.8355 14.0017 16.9018 14.0017 14.7162V14.7178ZM15.7095 8.492C15.7095 8.25731 15.6583 8.02544 15.5596 7.81251C15.4609 7.59959 15.3171 7.4107 15.138 7.259C15.0488 7.18372 14.9379 7.13896 14.8214 7.13127C14.7049 7.12358 14.5891 7.15336 14.4907 7.21625L12.8085 8.29475C12.7098 8.3579 12.6338 8.45078 12.5913 8.55997C12.5488 8.66916 12.5422 8.78902 12.5722 8.90225C12.6622 9.24575 12.8625 9.5495 13.1415 9.7655C13.4205 9.983 13.7625 10.1 14.1143 10.1C14.3239 10.0997 14.5315 10.0579 14.7249 9.97709C14.9184 9.89625 15.0939 9.77795 15.2415 9.629C15.5415 9.32675 15.7087 8.918 15.7095 8.492Z" fill="white" fill-opacity="0.8"/>
</svg>
