<svg width="24" height="24" viewBox="0 0 24 24" fill="none" xmlns="http://www.w3.org/2000/svg">
<path d="M12.001 24C5.37323 24 0.000976562 18.6278 0.000976562 12C0.000976562 5.37225 5.37323 0 12.001 0C18.6287 0 24.001 5.37225 24.001 12C24.001 18.6278 18.6287 24 12.001 24ZM17.9965 12.1642L12.3745 3L6.75098 12.165L12.3745 15.4298L17.9965 12.1642ZM18.001 13.212L12.3745 16.4753L6.75098 13.2128L12.3745 20.9963L18.001 13.212Z" fill="white"/>
<path d="M12.374 3V9.6525L17.9968 12.165L12.374 3ZM12.374 16.476V20.9963L18.0005 13.212L12.374 16.476Z" fill="white" fill-opacity="0.298"/>
<path d="M12.374 15.43L17.9968 12.1653L12.374 9.6543V15.43Z" fill="white" fill-opacity="0.801"/>
<path d="M6.75098 12.1653L12.3745 15.43V9.6543L6.75098 12.1653Z" fill="white" fill-opacity="0.298"/>
</svg>
