<svg width="41" height="24" viewBox="0 0 41 24" fill="none" xmlns="http://www.w3.org/2000/svg">
<path d="M10.9005 16.023V20.4135C10.8953 20.406 10.098 20.4225 10.1003 20.4135V16.023C10.0704 16.0015 10.0423 15.9777 10.0163 15.9517L8.86575 14.8118C8.76719 14.7148 8.69977 14.5906 8.67212 14.4552C8.64446 14.3197 8.65783 14.1791 8.7105 14.0513C8.76215 13.9238 8.85057 13.8146 8.9645 13.7375C9.07842 13.6604 9.21271 13.619 9.35025 13.6185H11.652C11.7897 13.618 11.9243 13.6591 12.0383 13.7363C12.1523 13.8135 12.2403 13.9232 12.291 14.0513C12.3429 14.1791 12.3559 14.3194 12.3282 14.4546C12.3006 14.5898 12.2336 14.7138 12.1357 14.811L10.9853 15.951C10.9591 15.9773 10.9307 16.0014 10.9005 16.023ZM19.3778 8.2095C19.9837 9.7965 21.8888 15.405 19.7288 18.1073C17.6385 20.7225 14.2162 21.627 12.7537 22.0133C10.5022 22.662 10.4978 22.662 8.24625 22.0133C6.7845 21.627 3.3615 20.7232 1.27125 18.1073C-0.88875 15.4042 1.01625 9.79725 1.62225 8.2095C1.03575 7.7505 0 6.73425 0 5.29125C0 3.4125 1.57575 1.5 3.123 1.5H3.1845C4.20675 1.53525 5.05725 2.61225 5.50725 3.31125C5.93925 3.01213 6.44705 2.84131 6.972 2.8185H14.0287C14.5538 2.841 15.0607 3.012 15.4935 3.31125C15.9412 2.61225 16.794 1.53525 17.8162 1.5H17.877C19.4242 1.5 21.0007 3.4125 21.0007 5.29125C21.0007 6.7335 19.965 7.7505 19.3778 8.2095ZM6.8865 11.1C7.23825 11.1 7.58025 10.9823 7.85925 10.7655C8.1375 10.5495 8.33775 10.2458 8.42775 9.903C8.4573 9.78965 8.45037 9.66987 8.40796 9.56068C8.36555 9.45149 8.28981 9.35844 8.1915 9.29475L6.50925 8.21625C6.41108 8.1533 6.29532 8.12349 6.17896 8.13118C6.0626 8.13888 5.95177 8.18368 5.86275 8.259C5.68294 8.41007 5.53854 8.59882 5.43977 8.8119C5.34101 9.02497 5.29031 9.25715 5.29125 9.492C5.29125 9.918 5.46 10.3267 5.75925 10.6283C6.05775 10.9297 6.4635 11.0992 6.8865 11.1ZM14.0017 15.7178C14.0028 15.0269 13.8352 14.3462 13.5135 13.7347C13.193 13.1251 12.7276 12.6036 12.1582 12.216C11.6808 11.8558 11.0988 11.6615 10.5008 11.6625C9.90261 11.6609 9.32032 11.8547 8.8425 12.2145C8.27315 12.6021 7.80776 13.1236 7.48725 13.7333C7.16553 14.3447 6.99793 15.0254 6.999 15.7162C6.999 17.901 8.50725 18.8363 9.7725 19.2352C10.2461 19.3839 10.7539 19.3839 11.2275 19.2352C12.4928 18.8355 14.0017 17.9018 14.0017 15.7162V15.7178ZM15.7095 9.492C15.7095 9.25731 15.6583 9.02544 15.5596 8.81251C15.4609 8.59959 15.3171 8.4107 15.138 8.259C15.0488 8.18372 14.9379 8.13896 14.8214 8.13127C14.7049 8.12358 14.5891 8.15336 14.4907 8.21625L12.8085 9.29475C12.7098 9.3579 12.6338 9.45078 12.5913 9.55997C12.5488 9.66916 12.5422 9.78902 12.5722 9.90225C12.6622 10.2458 12.8625 10.5495 13.1415 10.7655C13.4205 10.983 13.7625 11.1 14.1143 11.1C14.3239 11.0997 14.5315 11.0579 14.7249 10.9771C14.9184 10.8963 15.0939 10.778 15.2415 10.629C15.5415 10.3267 15.7087 9.918 15.7095 9.492Z" fill="white" fill-opacity="0.8"/>
<path d="M29.001 24C22.3732 24 17.001 18.6278 17.001 12C17.001 5.37225 22.3732 0 29.001 0C35.6287 0 41.001 5.37225 41.001 12C41.001 18.6278 35.6287 24 29.001 24ZM34.9965 12.1642L29.3745 3L23.751 12.165L29.3745 15.4298L34.9965 12.1642ZM35.001 13.212L29.3745 16.4753L23.751 13.2128L29.3745 20.9963L35.001 13.212Z" fill="white"/>
<path d="M29.374 3V9.6525L34.9968 12.165L29.374 3ZM29.374 16.476V20.9963L35.0005 13.212L29.374 16.476Z" fill="white" fill-opacity="0.298"/>
<path d="M29.374 15.43L34.9968 12.1653L29.374 9.6543V15.43Z" fill="white" fill-opacity="0.801"/>
<path d="M23.751 12.1653L29.3745 15.43V9.6543L23.751 12.1653Z" fill="white" fill-opacity="0.298"/>
</svg>
