<svg width="57" height="56" viewBox="0 0 57 56" fill="none" xmlns="http://www.w3.org/2000/svg">
<path d="M36.7374 29.2375C37.4209 28.554 37.4209 27.446 36.7374 26.7626L30.9041 20.9293C30.2207 20.2458 29.1127 20.2458 28.4292 20.9293C27.7458 21.6127 27.7458 22.7207 28.4292 23.4041L31.2751 26.25H14.5C13.5335 26.25 12.75 27.0335 12.75 28C12.75 28.9665 13.5335 29.75 14.5 29.75H31.2751L28.4292 32.5959C27.7458 33.2793 27.7458 34.3874 28.4292 35.0708C29.1127 35.7542 30.2207 35.7542 30.9041 35.0708L36.7374 29.2375Z" fill="#FF508D"/>
<path fill-rule="evenodd" clip-rule="evenodd" d="M33.0386 2.91669H35.628C38.8191 2.91664 41.3912 2.9166 43.4141 3.18858C45.5143 3.47095 47.2827 4.07503 48.6872 5.47951C50.0917 6.88398 50.6957 8.65235 50.9781 10.7526C51.2501 12.7755 51.2501 15.3476 51.25 18.5387V37.4614C51.2501 40.6524 51.2501 43.2245 50.9781 45.2474C50.6957 47.3477 50.0917 49.1161 48.6872 50.5205C47.2827 51.925 45.5143 52.5291 43.4141 52.8115C41.3912 53.0834 38.8191 53.0834 35.628 53.0834H33.0386C29.8476 53.0834 27.2755 53.0834 25.2526 52.8115C23.1523 52.5291 21.384 51.925 19.9795 50.5205C19.0466 49.5877 18.4668 48.4942 18.0999 47.2496C15.8803 47.2467 14.031 47.2223 12.5327 47.0208C10.7502 46.7812 9.20473 46.2625 7.97111 45.0289C6.73749 43.7953 6.21884 42.2498 5.97918 40.4673C5.7499 38.762 5.74995 36.6019 5.75 33.9587V22.0414C5.74995 19.3982 5.7499 17.2381 5.97918 15.5328C6.21884 13.7502 6.73749 12.2047 7.97111 10.9711C9.20473 9.73751 10.7502 9.21885 12.5327 8.9792C14.031 8.77776 15.8803 8.75333 18.0999 8.75041C18.4668 7.50582 19.0466 6.41239 19.9795 5.47951C21.384 4.07503 23.1523 3.47095 25.2526 3.18858C27.2755 2.9166 29.8476 2.91664 33.0386 2.91669ZM17.4167 37.4614C17.4166 39.9112 17.4166 41.9961 17.5396 43.7479C15.5927 43.7403 14.1453 43.7062 12.9991 43.5521C11.6047 43.3646 10.9209 43.029 10.446 42.554C9.97106 42.0791 9.63545 41.3954 9.44797 40.0009C9.25372 38.5561 9.25001 36.6327 9.25001 33.8334V22.1667C9.25001 19.3674 9.25372 17.4439 9.44797 15.9991C9.63545 14.6047 9.97106 13.9209 10.446 13.446C10.9209 12.9711 11.6047 12.6355 12.9991 12.448C14.1453 12.2939 15.5927 12.2597 17.5396 12.2521C17.4166 14.0039 17.4166 16.0889 17.4167 18.5386L17.4167 18.6667C17.4167 19.6332 18.2002 20.4167 19.1667 20.4167C20.1332 20.4167 20.9167 19.6332 20.9167 18.6667C20.9167 15.3174 20.9204 12.9815 21.1573 11.219C21.3875 9.50683 21.8086 8.60016 22.4544 7.95438C23.1001 7.3086 24.0068 6.88756 25.719 6.65737C27.4814 6.42041 29.8174 6.41669 33.1667 6.41669H35.5C38.8493 6.41669 41.1852 6.42041 42.9477 6.65737C44.6599 6.88756 45.5665 7.3086 46.2123 7.95438C46.8581 8.60016 47.2791 9.50683 47.5093 11.219C47.7463 12.9815 47.75 15.3174 47.75 18.6667V37.3334C47.75 40.6827 47.7463 43.0186 47.5093 44.7811C47.2791 46.4932 46.8581 47.3999 46.2123 48.0457C45.5665 48.6914 44.6599 49.1125 42.9477 49.3427C41.1852 49.5796 38.8493 49.5834 35.5 49.5834H33.1667C29.8174 49.5834 27.4814 49.5796 25.719 49.3427C24.0068 49.1125 23.1001 48.6914 22.4544 48.0457C21.8086 47.3999 21.3875 46.4932 21.1573 44.7811C20.9204 43.0186 20.9167 40.6827 20.9167 37.3334C20.9167 36.3669 20.1332 35.5834 19.1667 35.5834C18.2002 35.5834 17.4167 36.3669 17.4167 37.3334L17.4167 37.4614Z" fill="#FF508D"/>
</svg>
