<svg width="28" height="28" viewBox="0 0 28 28" fill="none" xmlns="http://www.w3.org/2000/svg">
<path d="M14.875 2.33325C14.875 1.85 14.4832 1.45825 14 1.45825C13.5168 1.45825 13.125 1.85 13.125 2.33325V6.99992C13.125 7.48317 13.5168 7.87492 14 7.87492C14.4832 7.87492 14.875 7.48317 14.875 6.99992V2.33325Z" fill="#9D50FF"/>
<path d="M10.2572 5.1295C10.7024 4.94142 10.9108 4.42809 10.7227 3.98294C10.5346 3.53779 10.0213 3.32939 9.57612 3.51747C5.49304 5.2426 2.625 9.28532 2.625 13.9999C2.625 20.2822 7.71776 25.3749 14 25.3749C20.2822 25.3749 25.375 20.2822 25.375 13.9999C25.375 9.28532 22.507 5.2426 18.4239 3.51747C17.9787 3.32939 17.4654 3.53779 17.2773 3.98294C17.0892 4.42809 17.2976 4.94142 17.7428 5.1295C21.2009 6.59057 23.625 10.0132 23.625 13.9999C23.625 19.3157 19.3157 23.6249 14 23.6249C8.68426 23.6249 4.375 19.3157 4.375 13.9999C4.375 10.0132 6.79909 6.59057 10.2572 5.1295Z" fill="#9D50FF"/>
</svg>
