<svg width="57" height="56" viewBox="0 0 57 56" fill="none" xmlns="http://www.w3.org/2000/svg">
<path d="M37.9044 23.4044C38.5878 22.721 38.5878 21.613 37.9044 20.9296C37.221 20.2461 36.113 20.2461 35.4296 20.9296L25.0003 31.3588L21.5711 27.9296C20.8877 27.2461 19.7796 27.2461 19.0962 27.9296C18.4128 28.613 18.4128 29.721 19.0962 30.4044L23.7629 35.0711C24.4463 35.7545 25.5543 35.7545 26.2378 35.0711L37.9044 23.4044Z" fill="currentColor"/>
<path fill-rule="evenodd" clip-rule="evenodd" d="M28.5003 2.91699C14.6472 2.91699 3.41699 14.1472 3.41699 28.0003C3.41699 41.8535 14.6472 53.0837 28.5003 53.0837C42.3535 53.0837 53.5837 41.8535 53.5837 28.0003C53.5837 14.1472 42.3535 2.91699 28.5003 2.91699ZM6.91699 28.0003C6.91699 16.0802 16.5802 6.41699 28.5003 6.41699C40.4205 6.41699 50.0837 16.0802 50.0837 28.0003C50.0837 39.9205 40.4205 49.5837 28.5003 49.5837C16.5802 49.5837 6.91699 39.9205 6.91699 28.0003Z" fill="currentColor"/>
</svg>
