<svg width="12" height="8" viewBox="0 0 12 8" fill="none" xmlns="http://www.w3.org/2000/svg">
<path opacity="0.9" d="M1.73111 0.468116C1.99736 0.588114 2.22835 0.784612 2.49535 0.904236L5.05507 2.0521C5.35016 2.18471 5.66999 2.25327 5.9935 2.25327C6.31701 2.25327 6.63685 2.18471 6.93193 2.0521L9.49128 0.904236C9.75752 0.784237 9.98927 0.589239 10.2555 0.46849L10.3024 0.448616C10.4503 0.388422 10.6084 0.357354 10.7681 0.357117C10.9289 0.357146 11.088 0.389571 11.2359 0.452454C11.3838 0.515338 11.5176 0.60739 11.6291 0.723113C11.8766 0.96761 12 1.25823 12 1.59798C12 1.93772 11.8763 2.22835 11.6303 2.47284L6.9368 7.23604C6.81485 7.35921 6.6695 7.45674 6.50931 7.52291C6.34281 7.59341 6.17519 7.63204 6.00494 7.64066C5.83845 7.65035 5.67165 7.62782 5.51369 7.57429C5.36206 7.52566 5.22717 7.43534 5.12445 7.31367L0.356374 2.47209C0.241337 2.35778 0.150505 2.22147 0.0892984 2.07129C0.028092 1.92111 -0.00223461 1.76014 0.000128172 1.59798C0.000128172 1.25823 0.119002 0.96761 0.356374 0.724613C0.475248 0.603114 0.611372 0.511615 0.76437 0.450116C0.912048 0.390017 1.06993 0.35895 1.22937 0.358617C1.4026 0.35848 1.57379 0.395593 1.73111 0.468116Z" fill="#F2F2F2"/>
</svg>
