<svg width="25" height="25" viewBox="0 0 25 25" fill="none" xmlns="http://www.w3.org/2000/svg">
<g clip-path="url(#clip0_251_7329)">
<path d="M12.5 24.5C19.15 24.5 24.5 19.15 24.5 12.5C24.5 5.84996 19.15 0.5 12.5 0.5C5.84996 0.5 0.5 5.84996 0.5 12.5C0.5 19.15 5.84996 24.5 12.5 24.5Z" fill="#2775CA"/>
<path d="M15.8001 14.3999C15.8001 12.65 14.7501 12.05 12.6501 11.8C11.1501 11.6 10.8501 11.2 10.8501 10.4999C10.8501 9.79987 11.3501 9.34999 12.3501 9.34999C13.2501 9.34999 13.7501 9.64999 14.0001 10.4C14.0501 10.55 14.2001 10.6499 14.3501 10.6499H15.15C15.3501 10.6499 15.5001 10.4999 15.5001 10.3V10.25C15.3 9.14995 14.4 8.29999 13.2501 8.20003V7.00003C13.2501 6.79999 13.1001 6.64999 12.8501 6.59995H12.1001C11.9001 6.59995 11.7501 6.74995 11.7 7.00003V8.14999C10.2 8.35003 9.2501 9.34999 9.2501 10.6C9.2501 12.25 10.2501 12.8999 12.3501 13.15C13.7501 13.4 14.2001 13.7 14.2001 14.5C14.2001 15.3001 13.5 15.85 12.5501 15.85C11.25 15.85 10.8 15.2999 10.65 14.5499C10.6001 14.35 10.4501 14.2499 10.3001 14.2499H9.45002C9.2501 14.2499 9.1001 14.3999 9.1001 14.6V14.65C9.30002 15.8999 10.1001 16.7999 11.7501 17.05V18.25C11.7501 18.4499 11.9001 18.5999 12.15 18.65H12.9C13.1001 18.65 13.2501 18.5 13.3001 18.25V17.05C14.8001 16.7999 15.8001 15.7499 15.8001 14.3999Z" fill="white"/>
<path d="M9.95 19.65C6.05 18.25 4.04996 13.9 5.50004 10.05C6.25004 7.94995 7.90004 6.34999 9.95 5.59999C10.15 5.50003 10.25 5.35003 10.25 5.09995V4.39999C10.25 4.19995 10.15 4.04995 9.95 4.00003C9.89996 4.00003 9.8 4.00003 9.74996 4.04995C5 5.54995 2.39996 10.6 3.89996 15.35C4.79996 18.15 6.95 20.3 9.74996 21.2C9.95 21.2999 10.15 21.2 10.2 21C10.25 20.95 10.25 20.9 10.25 20.8V20.0999C10.25 19.9499 10.1 19.75 9.95 19.65ZM15.25 4.04995C15.05 3.94999 14.85 4.04995 14.8 4.24999C14.75 4.30003 14.75 4.34995 14.75 4.45003V5.14999C14.75 5.35003 14.9 5.54995 15.05 5.65003C18.95 7.04995 20.95 11.4 19.5 15.25C18.75 17.35 17.1 18.95 15.05 19.7C14.85 19.8 14.75 19.95 14.75 20.2V20.9C14.75 21.1 14.85 21.25 15.05 21.2999C15.1 21.2999 15.2 21.3 15.25 21.25C20 19.75 22.6 14.7 21.1 9.94999C20.2 7.09999 18 4.94995 15.25 4.04995Z" fill="white"/>
</g>
<defs>
<clipPath id="clip0_251_7329">
<rect width="24" height="24" fill="white" transform="translate(0.5 0.5)"/>
</clipPath>
</defs>
</svg>
